HIERARCHY
ROOT Hips
{
    OFFSET 0.000000 0.000000 0.000000
    CHANNELS 6 Xposition Yposition Zposition Zrotation Xrotation Yrotation
    JOINT Spine
    {
        OFFSET -0.000000 14.517291 0.000000
        CHANNELS 3 Zrotation Xrotation Yrotation
        JOINT Spine1
        {
            OFFSET -0.000000 37.558300 0.000000
            CHANNELS 3 Zrotation Xrotation Yrotation
            JOINT Neck
            {
                OFFSET -0.000000 37.404057 3.400369
                CHANNELS 3 Zrotation Xrotation Yrotation
                JOINT Head
                {
                    OFFSET -0.000000 24.785618 -3.540803
                    CHANNELS 3 Zrotation Xrotation Yrotation
                    End Site
                    {
                        OFFSET -0.000000 35.408028 0.000000
                    }
                }
            }
            JOINT LeftShoulder
            {
                OFFSET 6.992933 33.973492 -0.192664
                CHANNELS 3 Zrotation Xrotation Yrotation
                JOINT LeftArm
                {
                    OFFSET 21.527611 0.000000 0.000000
                    CHANNELS 3 Zrotation Xrotation Yrotation
                    JOINT LeftForeArm
                    {
                        OFFSET 56.353916 0.000000 0.000000
                        CHANNELS 3 Zrotation Xrotation Yrotation
                        JOINT LeftHand
                        {
                            OFFSET 47.774071 0.000000 0.000000
                            CHANNELS 3 Zrotation Xrotation Yrotation
                            End Site
                            {
                                OFFSET 26.556021 0.000000 0.000000
                            }
                        }
                    }
                }
            }
            JOINT RightShoulder
            {
                OFFSET -7.065357 33.973492 -0.192664
                CHANNELS 3 Zrotation Xrotation Yrotation
                JOINT RightArm
                {
                    OFFSET -21.527611 0.000000 0.000000
                    CHANNELS 3 Zrotation Xrotation Yrotation
                    JOINT RightForeArm
                    {
                        OFFSET -56.353916 0.000000 0.000000
                        CHANNELS 3 Zrotation Xrotation Yrotation
                        JOINT RightHand
                        {
                            OFFSET -47.774071 0.000000 0.000000
                            CHANNELS 3 Zrotation Xrotation Yrotation
                            End Site
                            {
                                OFFSET -26.556021 0.000000 0.000000
                            }
                        }
                    }
                }
            }
        }
    }
    JOINT LeftUpLeg
    {
        OFFSET 17.704014 0.000000 0.000000
        CHANNELS 3 Zrotation Xrotation Yrotation
        JOINT LeftLeg
        {
            OFFSET -0.000000 -81.181816 0.000000
            CHANNELS 3 Zrotation Xrotation Yrotation
            JOINT LeftFoot
            {
                OFFSET -0.000000 -62.821102 0.000000
                CHANNELS 3 Zrotation Xrotation Yrotation
                JOINT LeftToeBase
                {
                    OFFSET -0.000000 -11.507608 26.556021
                    CHANNELS 3 Zrotation Xrotation Yrotation
                    End Site
                    {
                        OFFSET -0.000000 0.000000 7.081605
                    }
                }
            }
        }
    }
    JOINT RightUpLeg
    {
        OFFSET -17.704014 0.000000 0.000000
        CHANNELS 3 Zrotation Xrotation Yrotation
        JOINT RightLeg
        {
            OFFSET -0.000000 -81.181816 0.000000
            CHANNELS 3 Zrotation Xrotation Yrotation
            JOINT RightFoot
            {
                OFFSET -0.000000 -62.821102 0.000000
                CHANNELS 3 Zrotation Xrotation Yrotation
                JOINT RightToeBase
                {
                    OFFSET -0.000000 -11.507608 26.556021
                    CHANNELS 3 Zrotation Xrotation Yrotation
                    End Site
                    {
                        OFFSET -0.000000 0.000000 7.081605
                    }
                }
            }
        }
    }
}
MOTION
Frames:    14
Frame Time:    0.008333
0.049522    153.888733    -34.975414    1.477979    -2.043403    -16.675907    -1.944469    0.130365    -6.484330    -0.766268    3.490320    -2.140742    15.330887    2.179268    11.187896    -8.028513    1.593181    8.626947    3.257371    11.635666    -21.818542    -29.511751    16.042624    -41.866852    53.343254    -45.349083    -17.280046    -26.020485    -30.160263    -43.421715    -2.551597    4.414609    -6.332788    36.015839    12.875329    72.920326    4.194232    -5.587167    98.828232    5.022755    -9.835855    13.958931    13.576724    -24.542665    -1.892362    -14.675357    19.958679    5.443751    -6.019065    5.589239    18.224592    0.000000    0.000000    0.000000    -7.832768    0.531211    2.360305    8.959668    35.682503    -0.911141    -1.237171    -31.304230    -28.815334    0.000000    0.000000    0.000000    
0.069239    153.879089    -34.979511    1.470303    -2.067418    -16.702364    -1.919408    0.131202    -6.464599    -0.779604    3.491035    -2.133746    15.294574    2.190538    11.178181    -7.992230    1.562947    8.625698    3.232672    11.643099    -21.787035    -29.554323    16.066204    -41.873554    53.321289    -45.367043    -17.315626    -26.045427    -30.164608    -43.406265    -2.552313    4.427169    -6.332897    36.037308    12.867113    72.898254    4.232797    -5.537168    98.786736    5.047311    -9.822076    14.009559    13.593904    -24.520685    -1.812060    -14.683475    19.985950    5.434089    -5.999288    5.583630    18.168598    0.000000    0.000000    0.000000    -7.846701    0.542634    2.331931    8.951092    35.695000    -0.867732    -1.248725    -31.320820    -28.828119    0.000000    0.000000    0.000000    
0.090237    153.876450    -34.986431    1.468842    -2.084094    -16.724874    -1.904830    0.134014    -6.449394    -0.783788    3.475773    -2.128654    15.273039    2.184294    11.179568    -7.970202    1.573389    8.632668    3.197510    11.635209    -21.766655    -29.605738    16.104742    -41.853447    53.316475    -45.382885    -17.336775    -26.115128    -30.147259    -43.417793    -2.549077    4.423184    -6.323127    36.026432    12.886934    72.860703    4.237308    -5.533670    98.761932    5.075691    -9.817643    14.022740    13.599355    -24.504953    -1.735617    -14.680134    20.001654    5.377721    -5.991490    5.592849    18.176357    0.000000    0.000000    0.000000    -7.864483    0.542755    2.308764    8.932793    35.714119    -0.811390    -1.250656    -31.327021    -28.836056    0.000000    0.000000    0.000000    
0.107004    153.870453    -34.988029    1.465634    -2.101017    -16.740225    -1.888610    0.126062    -6.443481    -0.789219    3.479907    -2.126445    15.240197    2.174988    11.188856    -7.941397    1.569015    8.648808    3.163843    11.627018    -21.737663    -29.638273    16.142000    -41.833767    53.309757    -45.386181    -17.350494    -26.170370    -30.120968    -43.439594    -2.557205    4.420062    -6.328607    36.036728    12.904343    72.845390    4.255042    -5.502584    98.737610    5.115119    -9.799577    14.041265    13.607915    -24.492275    -1.669587    -14.686245    20.029839    5.341594    -5.962615    5.591197    18.157057    0.000000    0.000000    0.000000    -7.881790    0.552041    2.287471    8.923606    35.727074    -0.773669    -1.260898    -31.331436    -28.818207    0.000000    0.000000    0.000000    
0.123689    153.864182    -34.988998    1.464999    -2.118408    -16.753590    -1.871710    0.118108    -6.440013    -0.794678    3.474316    -2.125150    15.194088    2.069861    11.257832    -7.805527    1.720169    8.740069    3.126022    11.636588    -21.716661    -29.662605    16.158817    -41.811295    53.279663    -45.413376    -17.369251    -26.233944    -30.120041    -43.472660    -2.577127    4.418086    -6.313129    36.061806    12.918173    72.814415    4.305343    -5.473435    98.730492    5.138634    -9.824351    14.062166    13.612145    -24.471136    -1.598545    -14.685459    20.038799    5.292576    -5.949837    5.581517    18.155275    0.000000    0.000000    0.000000    -7.903490    0.561551    2.268628    8.925300    35.737045    -0.743400    -1.259040    -31.345835    -28.811056    0.000000    0.000000    0.000000    
0.139167    153.862595    -34.988956    1.462245    -2.138766    -16.760515    -1.856763    0.117168    -6.436983    -0.801835    3.471007    -2.123954    15.159707    2.065700    11.267167    -7.773537    1.712074    8.757315    3.097232    11.648305    -21.700205    -29.680944    16.184071    -41.800858    53.280590    -45.442375    -17.359657    -26.276529    -30.140900    -43.487118    -2.583610    4.433838    -6.323953    36.076195    12.920206    72.815895    4.330501    -5.431320    98.719849    5.110810    -9.815014    14.046982    13.610485    -24.449940    -1.537638    -14.674265    20.050299    5.232163    -5.943769    5.584224    18.157764    0.000000    0.000000    0.000000    -7.920251    0.581889    2.239334    8.915400    35.736622    -0.742469    -1.257514    -31.342993    -28.762991    0.000000    0.000000    0.000000    
0.157420    153.859970    -34.983940    1.468616    -2.166445    -16.763197    -1.851940    0.112962    -6.440704    -0.812966    3.483988    -2.124707    15.164721    2.088542    11.279054    -7.812840    1.655842    8.763395    3.079285    11.652228    -21.686647    -29.718191    16.174982    -41.770081    53.230968    -45.463737    -17.400013    -26.293749    -30.152138    -43.482742    -2.589294    4.429102    -6.322078    36.075882    12.934929    72.802109    4.373528    -5.420119    98.732872    5.104992    -9.854178    14.069338    13.594192    -24.420486    -1.481569    -14.669302    20.052454    5.232435    -5.898768    5.599282    18.090178    0.000000    0.000000    0.000000    -7.949186    0.605943    2.214271    8.904008    35.742023    -0.712901    -1.235138    -31.361732    -28.739880    0.000000    0.000000    0.000000    
0.174222    153.861160    -34.979519    1.472798    -2.197013    -16.767933    -1.839496    0.117852    -6.448589    -0.833765    3.488133    -2.126689    15.165234    2.100804    11.295302    -7.840226    1.621586    8.776153    3.061533    11.662501    -21.663218    -29.740499    16.187399    -41.749828    53.227074    -45.489178    -17.395452    -26.286432    -30.192822    -43.465851    -2.604415    4.436652    -6.324736    36.090813    12.952385    72.807182    4.391214    -5.408710    98.741837    5.099734    -9.864375    14.076827    13.575870    -24.387667    -1.423852    -14.644892    20.064455    5.195073    -5.893984    5.601371    18.046665    0.000000    0.000000    0.000000    -7.977107    0.636273    2.220132    8.921763    35.734196    -0.686575    -1.274319    -31.359125    -28.776423    0.000000    0.000000    0.000000    
0.190927    153.863937    -34.973804    1.479494    -2.224245    -16.766727    -1.830000    0.118847    -6.452289    -0.860780    3.499180    -2.127014    15.162717    2.094547    11.308608    -7.838864    1.593531    8.787773    3.064973    11.678582    -21.644026    -29.756310    16.202261    -41.746258    53.236977    -45.511581    -17.376417    -26.304491    -30.218424    -43.475552    -2.593592    4.433366    -6.332626    36.090042    12.959737    72.801727    4.407690    -5.389155    98.765564    5.084373    -9.867933    14.078478    13.554121    -24.354662    -1.406283    -14.637143    20.049347    5.210973    -5.895867    5.620090    18.002613    0.000000    0.000000    0.000000    -8.004076    0.661283    2.231741    8.940736    35.734905    -0.681453    -1.287792    -31.357891    -28.796736    0.000000    0.000000    0.000000    
0.205613    153.868164    -34.968884    1.487047    -2.249027    -16.770248    -1.826728    0.125193    -6.456193    -0.874052    3.493723    -2.128000    15.156871    2.115011    11.319134    -7.845793    1.546565    8.798257    3.057709    11.691546    -21.627266    -29.793699    16.193068    -41.720398    53.185570    -45.552040    -17.418976    -26.252464    -30.285271    -43.440254    -2.603565    4.441662    -6.336888    36.087177    12.974247    72.806290    4.408592    -5.389593    98.786942    5.077737    -9.871443    14.090289    13.533040    -24.328438    -1.360084    -14.613922    20.056091    5.166284    -5.889312    5.630421    17.985489    0.000000    0.000000    0.000000    -8.026546    0.683138    2.250318    8.952413    35.729370    -0.659661    -1.305995    -31.355383    -28.832291    0.000000    0.000000    0.000000    
0.220952    153.873932    -34.970966    1.490250    -2.267139    -16.769228    -1.818476    0.149344    -6.454367    -0.882432    3.461454    -2.127484    15.156653    2.115865    11.324246    -7.859953    1.531803    8.800923    3.050531    11.701117    -21.632284    -29.839495    16.184082    -41.674610    53.123253    -45.596882    -17.477819    -26.194336    -30.355927    -43.398048    -2.609442    4.443625    -6.354979    36.072632    13.005007    72.803841    4.421528    -5.409661    98.832077    5.104259    -9.906371    14.105567    13.516937    -24.311768    -1.356800    -14.610124    20.049879    5.162424    -5.863423    5.653932    17.971756    0.000000    0.000000    0.000000    -8.039403    0.693049    2.271135    8.967326    35.732693    -0.664380    -1.303771    -31.353149    -28.842176    0.000000    0.000000    0.000000    
0.234737    153.879837    -34.970535    1.492653    -2.283400    -16.770531    -1.808862    0.164056    -6.454127    -0.899316    3.440563    -2.127103    15.164662    2.131739    11.322102    -7.880327    1.491242    8.794396    3.057421    11.700179    -21.640600    -29.896564    16.176403    -41.615688    53.046749    -45.669849    -17.558886    -26.135040    -30.461365    -43.325363    -2.611137    4.427057    -6.351832    36.077381    13.025323    72.772110    4.437663    -5.406770    98.884987    5.149625    -9.920927    14.117249    13.505204    -24.298241    -1.342609    -14.606075    20.052982    5.141142    -5.865112    5.666698    17.981831    0.000000    0.000000    0.000000    -8.047590    0.703610    2.282287    8.971937    35.729397    -0.691484    -1.310371    -31.333607    -28.839479    0.000000    0.000000    0.000000    
0.245722    153.881317    -34.973442    1.493327    -2.295657    -16.775534    -1.806632    0.178840    -6.452672    -0.895878    3.415887    -2.126994    15.176082    2.138102    11.332139    -7.919205    1.471370    8.797874    3.055345    11.713700    -21.642651    -29.905333    16.209156    -41.576580    53.056557    -45.748272    -17.538559    -26.137819    -30.572950    -43.288837    -2.627086    4.420484    -6.352326    36.066017    13.047919    72.761322    4.454302    -5.434607    98.936378    5.230007    -9.961459    14.133524    13.496582    -24.294004    -1.338913    -14.606568    20.064934    5.144030    -5.875472    5.670716    17.991058    0.000000    0.000000    0.000000    -8.053700    0.713325    2.301550    8.974662    35.722462    -0.708534    -1.297586    -31.338507    -28.828331    0.000000    0.000000    0.000000    
0.258441    153.886917    -34.974716    1.489530    -2.304603    -16.785788    -1.791974    0.194596    -6.446413    -0.907194    3.388489    -2.124863    15.195744    2.140393    11.334352    -7.956741    1.455858    8.791999    3.065131    11.706735    -21.644497    -29.943714    16.226976    -41.528854    53.013447    -45.852566    -17.572151    -26.160763    -30.690538    -43.268261    -2.629881    4.395871    -6.351594    36.058048    13.066537    72.736893    4.468432    -5.438052    98.989136    5.282282    -9.978830    14.143591    13.495783    -24.285337    -1.363907    -14.617703    20.058372    5.168032    -5.849429    5.682396    17.998028    0.000000    0.000000    0.000000    -8.051189    0.713727    2.325124    8.980653    35.722076    -0.722597    -1.326570    -31.315887    -28.867197    0.000000    0.000000    0.000000    
